<?xml version="1.0" encoding="utf-8"?>
<!-- Generator: Adobe Illustrator 15.0.2, SVG Export Plug-In . SVG Version: 6.00 Build 0)  -->
<!DOCTYPE svg PUBLIC "-//W3C//DTD SVG 1.1//EN" "http://www.w3.org/Graphics/SVG/1.1/DTD/svg11.dtd">
<svg version="1.1" id="Ebene_2" xmlns="http://www.w3.org/2000/svg" xmlns:xlink="http://www.w3.org/1999/xlink" x="0px" y="0px"
	 width="745.91px" height="202.624px" viewBox="0 0 745.91 202.624" enable-background="new 0 0 745.91 202.624"
	 xml:space="preserve">
<g>
	<path fill="#7F1418" d="M10.979,93.203l7.738-7.737h0.68c0.174,0,0.54,0.052,1.098,0.157c0.592,0.104,1.255,0.157,1.987,0.157
		c3.555,0,6.316-1.298,8.286-3.895c1.969-2.596,3.581-7.031,4.836-13.305l9.672-48.671c-7.181,0-12.983,1.929-17.409,5.786
		c-4.427,3.857-6.64,8.892-6.64,15.105v1.152l-10.142,4.921c0.941-10.748,5.114-18.61,12.521-23.583
		c7.406-4.973,18.638-7.46,33.694-7.46c11.745,0,19.971,1.126,24.676,3.375c4.705,2.25,7.058,6.184,7.058,11.8
		c0,9.28-6.779,17.199-20.337,23.758l12.547,21.044c4.461,7.485,7.771,11.227,9.933,11.227c2.37,0,6.622-3.084,12.756-9.253
		l-0.994,4.966C95.306,90.589,89.677,94.51,86.052,94.51c-4.705,0-9.899-5.245-15.579-15.736L58.71,57.078h-9.881l-0.941,4.706
		c-2.057,10.351-7.842,18.542-17.357,24.571l20.441,0.418l-7.214,7.737L10.979,93.203z M49.457,53.889h13.854
		c9.515-4.677,14.272-11.85,14.272-21.519c0-8.901-6.378-13.352-19.134-13.352H56.41L49.457,53.889z"/>
	<path fill="#7F1418" d="M150.2,78.878l-0.784,4.025c-11.083,7.738-20.529,11.606-28.335,11.606c-4.95,0-8.966-1.732-12.051-5.197
		c-3.084-3.465-4.626-7.948-4.626-13.45c0-9.82,3.764-19.056,11.292-27.71c7.528-8.653,15.561-12.98,24.101-12.98
		c3.102,0,5.611,1.044,7.528,3.132c1.917,2.088,2.875,4.803,2.875,8.144c0,6.682-3.416,12.425-10.247,17.227
		c-6.832,4.803-14.987,7.204-24.467,7.204l-0.052,2.353c0,10.177,3.729,15.266,11.188,15.266
		C133.069,88.498,140.928,85.292,150.2,78.878z M115.591,67.69c7.807-0.627,13.906-2.64,18.298-6.038
		c4.391-3.398,6.587-7.798,6.587-13.201c0-5.333-1.934-7.999-5.803-7.999c-4.183,0-8.226,2.78-12.129,8.338
		C118.64,54.351,116.322,60.651,115.591,67.69z"/>
	<path fill="#7F1418" d="M198.192,77.362l-0.941,4.862c-7.633,8.19-14.481,12.286-20.546,12.286c-5.019,0-7.528-2.631-7.528-7.895
		c0-1.777,0.4-4.705,1.202-8.783l3.607-18.193c0.976-5.158,1.464-8.591,1.464-10.299c0-2.928-1.133-4.391-3.398-4.391
		c-1.569,0-4.375,0.593-8.417,1.777l0.627-3.189l25.565-8.365l-3.973,16.729l-5.124,25.826c-0.802,4.043-1.203,6.622-1.203,7.737
		c0,2.266,1.028,3.398,3.084,3.398C186.063,88.864,191.256,85.03,198.192,77.362z M179.006,26.076l3.502-7.11l14.743-9.619
		l-4.496,9.619L179.006,26.076z"/>
	<path fill="#7F1418" d="M195.788,91.426l6.901-7.058c4.521,3.312,9.128,4.967,13.824,4.967c2.887,0,5.321-0.758,7.304-2.274
		c1.982-1.516,2.974-3.389,2.974-5.62c0-2.475-1.97-5.855-5.908-10.143l-4.758-5.228c-4.635-5.088-6.953-9.34-6.953-12.756
		c0-4.74,2.248-8.948,6.744-12.626c4.496-3.677,9.637-5.515,15.423-5.515c3.171,0,6.726,0.662,10.665,1.986l-2.3,11.554h-3.346
		l0.157-0.889c0.07-0.313,0.104-0.68,0.104-1.098c0-4.705-3.024-7.058-9.072-7.058c-6.778,0-10.167,2.718-10.167,8.155
		c0,2.754,2.021,6.414,6.064,10.979l4.287,4.757c4.67,5.263,7.005,9.585,7.005,12.965c0,4.671-2.475,8.835-7.424,12.495
		c-4.949,3.66-10.578,5.49-16.886,5.49C205.999,94.51,201.12,93.481,195.788,91.426z"/>
	<path fill="#7F1418" d="M296.792,78.878l-0.784,4.025c-11.083,7.738-20.529,11.606-28.335,11.606c-4.95,0-8.966-1.732-12.051-5.197
		c-3.084-3.465-4.626-7.948-4.626-13.45c0-9.82,3.764-19.056,11.292-27.71c7.528-8.653,15.561-12.98,24.101-12.98
		c3.102,0,5.611,1.044,7.528,3.132c1.917,2.088,2.875,4.803,2.875,8.144c0,6.682-3.416,12.425-10.247,17.227
		c-6.832,4.803-14.987,7.204-24.467,7.204l-0.052,2.353c0,10.177,3.729,15.266,11.188,15.266
		C279.661,88.498,287.52,85.292,296.792,78.878z M262.183,67.69c7.807-0.627,13.906-2.64,18.298-6.038
		c4.391-3.398,6.587-7.798,6.587-13.201c0-5.333-1.934-7.999-5.803-7.999c-4.183,0-8.226,2.78-12.129,8.338
		C265.232,54.351,262.914,60.651,262.183,67.69z"/>
	<path fill="#7F1418" d="M302.072,91.426l6.901-7.058c4.521,3.312,9.128,4.967,13.824,4.967c2.887,0,5.321-0.758,7.304-2.274
		c1.982-1.516,2.974-3.389,2.974-5.62c0-2.475-1.97-5.855-5.908-10.143l-4.758-5.228c-4.635-5.088-6.953-9.34-6.953-12.756
		c0-4.74,2.248-8.948,6.744-12.626c4.496-3.677,9.637-5.515,15.423-5.515c3.171,0,6.726,0.662,10.665,1.986l-2.3,11.554h-3.346
		l0.157-0.889c0.07-0.313,0.104-0.68,0.104-1.098c0-4.705-3.024-7.058-9.072-7.058c-6.778,0-10.167,2.718-10.167,8.155
		c0,2.754,2.021,6.414,6.064,10.979l4.287,4.757c4.67,5.263,7.005,9.585,7.005,12.965c0,4.671-2.475,8.835-7.424,12.495
		c-4.949,3.66-10.578,5.49-16.886,5.49C312.284,94.51,307.405,93.481,302.072,91.426z"/>
	<path fill="#7F1418" d="M403.076,78.878l-0.784,4.025c-11.083,7.738-20.529,11.606-28.335,11.606c-4.95,0-8.966-1.732-12.051-5.197
		c-3.084-3.465-4.626-7.948-4.626-13.45c0-9.82,3.764-19.056,11.292-27.71c7.528-8.653,15.561-12.98,24.101-12.98
		c3.102,0,5.61,1.044,7.528,3.132c1.916,2.088,2.875,4.803,2.875,8.144c0,6.682-3.416,12.425-10.247,17.227
		c-6.831,4.803-14.987,7.204-24.467,7.204l-0.052,2.353c0,10.177,3.729,15.266,11.188,15.266
		C385.945,88.498,393.805,85.292,403.076,78.878z M368.467,67.69c7.807-0.627,13.906-2.64,18.297-6.038
		c4.392-3.398,6.588-7.798,6.588-13.201c0-5.333-1.935-7.999-5.804-7.999c-4.182,0-8.226,2.78-12.128,8.338
		C371.517,54.351,369.199,60.651,368.467,67.69z"/>
	<path fill="#7F1418" d="M419.492,93.831l3.868-16.087l5.071-25.539c0.522-2.577,0.784-4.804,0.784-6.685
		c0-2.995-1.046-4.492-3.137-4.492c-3.694,0-8.975,3.936-15.841,11.807l0.941-4.648c8.051-8.675,15.038-13.013,20.964-13.013
		c5.019,0,7.528,2.874,7.528,8.62c0,2.543-0.313,5.363-0.941,8.462l-2.509,12.591h0.68c4.146-8.722,9.052-15.848,14.717-21.378
		c5.663-5.53,10.848-8.295,15.553-8.295c2.439,0,4.618,0.545,6.535,1.635l-6.953,9.445c-2.057-1.357-3.8-2.036-5.229-2.036
		c-6.796,0-15.841,9.975-27.133,29.924l-3.816,19.063L419.492,93.831z"/>
	<path fill="#7F1418" d="M497.44,94.51l0.262-7.103c0-13.752-1.255-24.607-3.764-32.563c-2.51-7.956-5.908-11.934-10.195-11.934
		c-4.356,0-8.957,4.178-13.802,12.534l1.517-7.729c6.317-8.361,12.199-12.542,17.645-12.542c12.11,0,18.167,15.249,18.167,45.745
		v2.875l4.277-5.175c12.692-15.333,19.039-26.483,19.039-33.453c0-3.275-1.147-6.185-3.443-8.729l11.181-1.263
		c1.707,2.544,2.562,4.862,2.562,6.953c0,2.928-1.193,6.222-3.578,9.881c-2.386,3.66-7.566,10.125-15.541,19.396l-18.701,21.801
		L497.44,94.51z"/>
	<path fill="#7F1418" d="M586.786,77.362l-0.94,4.862c-7.633,8.19-14.481,12.286-20.546,12.286c-5.019,0-7.528-2.631-7.528-7.895
		c0-1.777,0.4-4.705,1.202-8.783l3.607-18.193c0.976-5.158,1.464-8.591,1.464-10.299c0-2.928-1.133-4.391-3.398-4.391
		c-1.568,0-4.374,0.593-8.417,1.777l0.628-3.189l25.564-8.365l-3.974,16.729l-5.123,25.826c-0.802,4.043-1.202,6.622-1.202,7.737
		c0,2.266,1.027,3.398,3.084,3.398C574.657,88.864,579.851,85.03,586.786,77.362z M567.6,26.076l3.503-7.11l14.743-9.619
		l-4.496,9.619L567.6,26.076z"/>
	<path fill="#7F1418" d="M636.975,78.826l-0.784,4.078c-11.432,7.738-20.807,11.606-28.126,11.606
		c-5.054,0-9.114-1.708-12.182-5.124c-3.067-3.416-4.601-7.929-4.601-13.541c0-10.142,3.834-19.456,11.502-27.943
		c7.667-8.486,16.103-12.73,25.304-12.73c4.042,0,8.067,0.889,12.076,2.666l-3.503,13.436h-3.241l0.157-0.784
		c0.348-1.638,0.522-2.84,0.522-3.607c0-4.81-3.259-7.214-9.776-7.214c-6.135,0-11.24,3.276-15.317,9.829
		c-4.078,6.553-6.117,14.778-6.117,24.676c0,9.445,3.52,14.168,10.561,14.168C620.141,88.341,627.983,85.17,636.975,78.826z"/>
	<path fill="#7F1418" d="M695.581,78.878l-0.784,4.025c-11.084,7.738-20.529,11.606-28.336,11.606
		c-4.949,0-8.966-1.732-12.051-5.197c-3.084-3.465-4.627-7.948-4.627-13.45c0-9.82,3.765-19.056,11.293-27.71
		c7.528-8.653,15.562-12.98,24.101-12.98c3.102,0,5.611,1.044,7.528,3.132s2.876,4.803,2.876,8.144
		c0,6.682-3.417,12.425-10.247,17.227c-6.832,4.803-14.987,7.204-24.467,7.204l-0.053,2.353c0,10.177,3.729,15.266,11.188,15.266
		C678.45,88.498,686.31,85.292,695.581,78.878z M660.972,67.69c7.807-0.627,13.906-2.64,18.298-6.038s6.587-7.798,6.587-13.201
		c0-5.333-1.935-7.999-5.803-7.999c-4.183,0-8.226,2.78-12.129,8.338C664.021,54.351,661.703,60.651,660.972,67.69z"/>
</g>
<g>
	<path fill="#7F1418" d="M4.621,177.067l4.92-5.026c4.342,3.517,8.837,5.274,13.486,5.274c3.233,0,5.876-0.914,7.929-2.743
		c2.053-1.829,3.08-4.183,3.08-7.063c0-2.831-1.936-5.958-5.805-9.38l-4.991-4.425c-3.705-3.257-6-5.545-6.885-6.867
		c-0.885-1.321-1.328-3.091-1.328-5.31c0-4.412,1.864-8.218,5.593-11.415c3.728-3.198,8.177-4.797,13.345-4.797
		c3.28,0,7.126,0.979,11.54,2.938l-1.77,8.885h-2.23c0.047-0.731,0.071-1.239,0.071-1.522c0-2.241-0.897-4.047-2.69-5.416
		c-1.793-1.368-4.165-2.053-7.115-2.053c-3.044,0-5.605,0.902-7.681,2.708c-2.077,1.805-3.115,4.041-3.115,6.708
		c0,1.793,0.525,3.434,1.575,4.92c1.05,1.486,3.239,3.646,6.566,6.478l4.177,3.61c4.649,3.988,6.974,7.717,6.974,11.186
		c0,4.555-2.183,8.46-6.549,11.717s-9.569,4.885-15.61,4.885C13.482,180.359,8.987,179.261,4.621,177.067z"/>
	<path fill="#7F1418" d="M73.965,168.324l-0.637,3.292c-5.168,5.546-9.805,8.318-13.911,8.318c-3.398,0-5.098-1.781-5.098-5.345
		c0-1.204,0.271-3.186,0.814-5.947l2.442-12.318c0.66-3.492,0.991-5.816,0.991-6.973c0-1.982-0.767-2.974-2.301-2.974
		c-1.062,0-2.962,0.401-5.699,1.203l0.425-2.159l17.31-5.663l-2.69,11.327l-3.469,17.486c-0.543,2.737-0.814,4.483-0.814,5.238
		c0,1.535,0.696,2.302,2.088,2.302C65.752,176.112,69.269,173.516,73.965,168.324z M60.974,133.599l2.372-4.814l9.982-6.513
		l-3.044,6.513L60.974,133.599z"/>
	<path fill="#7F1418" d="M90.849,179.934c0.118-2.336,0.177-4.66,0.177-6.973c0-10.572-0.573-17.911-1.717-22.018
		c-1.145-4.106-3.18-6.159-6.106-6.159c-2.761,0-5.982,2.879-9.664,8.637l0.92-4.813c4.183-5.899,8.236-8.85,12.16-8.85
		c7.255,0,10.883,9.521,10.883,28.565l-0.071,3.61c8-11.421,12.566-21.745,13.699-30.973l3.292-0.778
		c3.209,10.359,4.814,20.66,4.814,30.901c3.445-4.46,6.372-9.155,8.779-14.088c2.407-4.932,3.61-8.672,3.61-11.221
		c0-1.486-0.519-3.209-1.557-5.168l7.929-0.425c0.401,1.086,0.602,2.088,0.602,3.009c0,1.888-1.086,4.726-3.257,8.513
		c-2.171,3.788-5.734,9.021-10.69,15.699l-1.912,2.584l-6.584,9.062l-3.575,0.885l0.106-4.283c0-9.604-0.601-17.474-1.801-23.609
		c-5.689,11.799-11.094,20.802-16.216,27.008L90.849,179.934z"/>
	<path fill="#7F1418" d="M176.511,169.35l-0.531,2.726c-7.504,5.239-13.899,7.858-19.185,7.858c-3.351,0-6.071-1.173-8.159-3.519
		s-3.133-5.382-3.133-9.107c0-6.648,2.549-12.902,7.646-18.762c5.097-5.858,10.536-8.788,16.318-8.788
		c2.1,0,3.799,0.707,5.097,2.121c1.297,1.413,1.947,3.252,1.947,5.514c0,4.524-2.313,8.412-6.938,11.664
		c-4.625,3.252-10.147,4.878-16.566,4.878l-0.036,1.593c0,6.891,2.525,10.336,7.575,10.336
		C164.913,175.864,170.234,173.693,176.511,169.35z M153.078,161.775c5.286-0.424,9.416-1.787,12.389-4.088
		c2.973-2.301,4.46-5.279,4.46-8.938c0-3.611-1.31-5.416-3.929-5.416c-2.832,0-5.569,1.882-8.212,5.646
		C155.143,152.744,153.574,157.009,153.078,161.775z"/>
	<path fill="#7F1418" d="M187.625,179.474l2.62-10.892l3.434-17.293c0.354-1.744,0.531-3.252,0.531-4.525
		c0-2.027-0.708-3.041-2.124-3.041c-2.502,0-6.077,2.664-10.726,7.993l0.637-3.146c5.451-5.874,10.182-8.812,14.194-8.812
		c3.398,0,5.097,1.945,5.097,5.836c0,1.722-0.212,3.632-0.637,5.73l-1.699,8.524h0.46c2.808-5.905,6.129-10.729,9.964-14.475
		c3.834-3.744,7.345-5.616,10.531-5.616c1.651,0,3.126,0.369,4.424,1.107l-4.708,6.396c-1.393-0.92-2.573-1.379-3.54-1.379
		c-4.602,0-10.725,6.753-18.371,20.261l-2.584,12.907L187.625,179.474z"/>
	<path fill="#7F1418" d="M249.819,168.324l-0.637,3.292c-5.168,5.546-9.805,8.318-13.911,8.318c-3.398,0-5.098-1.781-5.098-5.345
		c0-1.204,0.271-3.186,0.814-5.947l2.442-12.318c0.66-3.492,0.991-5.816,0.991-6.973c0-1.982-0.767-2.974-2.301-2.974
		c-1.062,0-2.962,0.401-5.699,1.203l0.425-2.159l17.31-5.663l-2.69,11.327l-3.469,17.486c-0.543,2.737-0.814,4.483-0.814,5.238
		c0,1.535,0.696,2.302,2.088,2.302C241.607,176.112,245.123,173.516,249.819,168.324z M236.828,133.599l2.372-4.814l9.982-6.513
		l-3.044,6.513L236.828,133.599z"/>
	<path fill="#7F1418" d="M248.191,177.846l4.672-4.779c3.061,2.242,6.181,3.363,9.36,3.363c1.955,0,3.603-0.514,4.945-1.54
		c1.342-1.026,2.013-2.295,2.013-3.806c0-1.675-1.333-3.964-4-6.866l-3.221-3.54c-3.139-3.445-4.708-6.324-4.708-8.637
		c0-3.209,1.522-6.059,4.566-8.549c3.044-2.489,6.525-3.734,10.442-3.734c2.147,0,4.554,0.448,7.221,1.345l-1.558,7.823h-2.266
		l0.106-0.602c0.047-0.213,0.071-0.461,0.071-0.744c0-3.186-2.048-4.778-6.143-4.778c-4.589,0-6.884,1.841-6.884,5.522
		c0,1.864,1.368,4.342,4.106,7.434l2.903,3.221c3.162,3.563,4.743,6.49,4.743,8.778c0,3.163-1.676,5.982-5.026,8.46
		c-3.351,2.479-7.163,3.717-11.434,3.717C255.105,179.934,251.801,179.238,248.191,177.846z"/>
	<path fill="#7F1418" d="M315.057,190.411l6.018-3.373c2.832,2.604,6.465,3.905,10.902,3.905c3.115,0,5.504-0.917,7.168-2.751
		s3.014-5.021,4.053-9.564c0.071-0.307,0.177-0.756,0.319-1.348c-4.201,1.18-8.59,1.77-13.168,1.77
		c-6.065,0-10.849-1.745-14.354-5.235s-5.256-8.242-5.256-14.256c0-9.409,3.28-17.469,9.84-24.178
		c6.56-6.709,14.465-10.064,23.716-10.064c5.262,0,10.395,0.662,15.398,1.985l-2.832,9.355h-2.159
		c0.094-0.827,0.142-1.548,0.142-2.163c0-2.103-1.133-3.798-3.398-5.086c-2.266-1.288-5.251-1.933-8.956-1.933
		c-6.325,0-11.888,3.186-16.69,9.558c-4.803,6.371-7.204,13.746-7.204,22.123c0,5.121,1.534,9.163,4.602,12.124
		c3.067,2.962,7.245,4.442,12.531,4.442c3.257,0,6.029-0.365,8.318-1.096l3.504-17.63h-6.265c-4.154,0-7.929,1.331-11.327,3.992
		l0.46-2.438c4.248-4.104,8.496-6.156,12.743-6.156h12.672l-2.761,10.938l-1.664,8.354c-1.534,7.646-4.242,13.256-8.124,16.831
		c-3.882,3.575-9.209,5.362-15.982,5.362C322.207,193.88,318.124,192.724,315.057,190.411z"/>
	<path fill="#7F1418" d="M367.055,179.474l2.619-10.902l3.469-17.486c0.542-2.714,0.814-4.483,0.814-5.31
		c0-1.463-0.696-2.194-2.088-2.194c-2.313,0-5.829,2.593-10.548,7.78l0.637-3.253c5.144-5.567,9.781-8.351,13.911-8.351
		c3.398,0,5.097,1.783,5.097,5.35c0,1.205-0.271,3.201-0.814,5.988l-1.735,8.751h0.496c3.021-6.142,6.318-11.024,9.894-14.65
		s6.873-5.438,9.894-5.438c1.581,0,2.908,0.626,3.982,1.878c1.073,1.252,1.61,2.811,1.61,4.677c0,1.37-0.2,3.012-0.602,4.925
		l-1.699,8.609h0.496c2.619-5.905,5.71-10.729,9.273-14.474c3.563-3.743,6.832-5.615,9.806-5.615c4.177,0,6.265,2.219,6.265,6.654
		c0,1.322-0.188,2.95-0.566,4.885l-3.433,17.274c-0.544,2.714-0.814,4.483-0.814,5.31c0,1.486,0.695,2.23,2.088,2.23
		c2.337,0,5.853-2.594,10.549-7.779l-0.637,3.288c-5.154,5.543-9.801,8.313-13.938,8.313c-3.428,0-5.143-1.779-5.143-5.339
		c0-1.155,0.285-3.159,0.856-6.012l3.459-17.257c0.333-1.556,0.499-2.688,0.499-3.395c0-1.957-0.731-2.936-2.194-2.936
		c-4.106,0-10.053,7.084-17.841,21.25l-2.654,12.803l-6.938,0.425l5.558-28.077c0.307-1.556,0.46-2.688,0.46-3.395
		c0-2.003-0.708-3.006-2.123-3.006c-1.771,0-4.384,2.075-7.841,6.224c-3.458,4.148-6.826,9.252-10.106,15.31l-2.584,12.52
		L367.055,179.474z"/>
	<path fill="#7F1418" d="M438.346,179.049l2.513-10.478l4.886-24.46c1.698-8.542,4.902-15.19,9.61-19.946
		c4.707-4.755,10.436-7.133,17.185-7.133c2.337,0,4.461,0.248,6.372,0.744l-4.885,5.062c-2.738-1.251-5.098-1.876-7.08-1.876
		c-3.752,0-6.565,1.362-8.441,4.088c-1.877,2.726-3.57,7.911-5.08,15.558l-3.823,19.221h0.603c2.713-5.947,5.94-10.778,9.681-14.495
		s7.251-5.575,10.531-5.575c5.002,0,7.504,3.115,7.504,9.345c0,6.891-2.726,13.628-8.177,20.212
		c-5.616,6.773-12.472,10.159-20.566,10.159c-1.203,0-2.726-0.035-4.565-0.106L438.346,179.049z M446.771,174.058
		c2.926,1.298,5.876,1.947,8.849,1.947c4.271,0,7.693-2.714,10.266-8.142c3.044-6.419,4.566-12.188,4.566-17.31
		c0-3.704-1.098-5.558-3.292-5.558c-2.006,0-4.915,2.13-8.726,6.39c-3.812,4.26-7.168,9.139-10.07,14.637L446.771,174.058z"/>
	<path fill="#7F1418" d="M501.955,153.068l2.407-2.832h4.318l4.035-20.318c-1.204-0.188-2.042-0.283-2.514-0.283
		c-3.775,0-6.99,1.369-9.646,4.106c-2.654,2.737-3.982,6.041-3.982,9.911v0.496l-6.867,3.362
		c1.086-13.899,10.809-20.849,29.168-20.849h1.911l-4.672,23.574h21.84l2.088-10.584c1.369-6.961,4.077-12.472,8.124-16.53
		s8.832-6.089,14.354-6.089c2.171,0,4.106,0.296,5.806,0.886l-3.044,5.273c-2.432-2.076-4.638-3.114-6.62-3.114
		c-2.501,0-4.501,1.05-5.999,3.15c-1.499,2.101-2.779,5.676-3.841,10.725l-5.664,26.478c-1.203,5.688-1.805,9.451-1.805,11.292
		c0,2.431,1.321,3.646,3.964,3.646c1.156,0,2.809-0.129,4.956-0.389l-0.46,2.229l-17.876,3.15l5.451-27.291h-21.84l-0.85,4.212
		c-1.346,6.679-4.296,12.124-8.85,16.336c-4.555,4.212-9.782,6.318-15.681,6.318c-4.366,0-8.036-1.345-11.009-4.035l4.955-5.098
		c2.266,3.895,5.569,5.841,9.911,5.841c6.254,0,10.384-5.026,12.39-15.079l1.699-8.495H501.955z"/>
</g>
<g>
	<path fill="#7F1418" d="M577.301,179.447l2.489-2.546c1.631,1.194,3.292,1.791,4.986,1.791c1.041,0,1.919-0.273,2.634-0.82
		s1.072-1.222,1.072-2.026c0-0.893-0.71-2.112-2.131-3.658l-1.716-1.886c-1.672-1.835-2.508-3.369-2.508-4.601
		c0-1.71,0.812-3.228,2.433-4.554c1.622-1.326,3.476-1.989,5.563-1.989c1.144,0,2.426,0.238,3.847,0.716l-0.83,4.168h-1.206
		l0.057-0.321c0.024-0.113,0.037-0.245,0.037-0.396c0-1.697-1.091-2.546-3.271-2.546c-2.445,0-3.667,0.98-3.667,2.941
		c0,0.993,0.729,2.313,2.187,3.96l1.547,1.716c1.685,1.898,2.526,3.457,2.526,4.677c0,1.685-0.893,3.187-2.678,4.506
		c-1.785,1.32-3.815,1.98-6.09,1.98C580.984,180.559,579.225,180.188,577.301,179.447z"/>
	<path fill="#7F1418" d="M613.73,174.92l-0.282,1.452c-3.998,2.791-7.404,4.187-10.221,4.187c-1.785,0-3.233-0.625-4.346-1.875
		c-1.112-1.249-1.669-2.866-1.669-4.851c0-3.542,1.357-6.873,4.073-9.994c2.715-3.121,5.612-4.682,8.692-4.682
		c1.118,0,2.023,0.377,2.715,1.13s1.037,1.731,1.037,2.937c0,2.41-1.231,4.481-3.695,6.214s-5.405,2.598-8.825,2.598l-0.019,0.849
		c0,3.671,1.345,5.506,4.035,5.506C607.552,178.39,610.387,177.234,613.73,174.92z M601.248,170.885
		c2.815-0.226,5.016-0.952,6.6-2.178s2.376-2.813,2.376-4.761c0-1.923-0.698-2.885-2.093-2.885c-1.509,0-2.967,1.002-4.375,3.007
		C602.348,166.075,601.512,168.346,601.248,170.885z"/>
	<path fill="#7F1418" d="M631.04,174.375l-0.339,1.753c-2.753,2.954-5.224,4.432-7.41,4.432c-1.811,0-2.716-0.949-2.716-2.848
		c0-0.641,0.145-1.697,0.434-3.168l1.301-6.562c0.353-1.86,0.528-3.099,0.528-3.715c0-1.056-0.408-1.584-1.226-1.584
		c-0.565,0-1.578,0.214-3.036,0.642l0.227-1.15l9.221-3.017l-1.434,6.033l-1.848,9.315c-0.289,1.458-0.434,2.389-0.434,2.79
		c0,0.817,0.371,1.226,1.112,1.226C626.666,178.522,628.539,177.14,631.04,174.375z M624.12,155.876l1.264-2.564l5.317-3.47
		l-1.622,3.47L624.12,155.876z"/>
	<path fill="#7F1418" d="M637.451,161.005h-4.317l1.301-1.396h3.281l1.074-5.336l3.903-0.943l-1.244,6.279h7.108l-1.546,1.659
		c-1.622-0.176-3.062-0.264-4.318-0.264h-1.527l-2.564,12.916c-0.264,1.333-0.396,2.27-0.396,2.81c0,0.993,0.439,1.489,1.319,1.489
		c1.357,0,3.212-1.005,5.563-3.017l-0.339,1.734c-2.439,2.414-4.783,3.621-7.033,3.621c-2.138,0-3.206-1.182-3.206-3.545
		c0-0.843,0.139-1.961,0.415-3.356L637.451,161.005z"/>
	<path fill="#7F1418" d="M662.077,180.087l0.509-1.15h1.32c1.156,0,1.872-0.18,2.149-0.538c0.276-0.359,0.647-1.604,1.112-3.732
		l1.866-9.43c0.265-1.36,0.396-2.279,0.396-2.759c0-0.579-0.554-0.913-1.659-1.001l-1.716-0.133l-0.02-1.149l8.165-1.037
		l-1.433,6.039l-1.849,9.324c-0.377,1.976-0.565,3.051-0.565,3.228c0,0.792,0.54,1.188,1.622,1.188h1.678l0.057,1.15H662.077z"/>
	<path fill="#7F1418" d="M679.632,181.266h1.169l-0.019,0.775c0,1.966,1.345,2.948,4.035,2.948c2.376,0,4.585-1.284,6.628-3.852
		c2.042-2.568,3.252-5.597,3.63-9.083c-2.515,3.344-5.299,5.016-8.354,5.016c-1.785,0-3.269-0.601-4.45-1.801
		s-1.772-2.706-1.772-4.517c0-3.042,1.087-5.734,3.262-8.079s4.67-3.517,7.486-3.517c2.438,0,4.377,0.842,5.817,2.526
		c1.438,1.685,2.158,3.966,2.158,6.845c0,4.639-1.581,8.733-4.742,12.284c-3.161,3.552-6.81,5.327-10.945,5.327
		c-1.271,0-2.93-0.297-4.979-0.891L679.632,181.266z M690.21,160.552c-1.71,0-3.171,0.843-4.384,2.527
		c-1.214,1.685-1.82,3.708-1.82,6.071c0,3.885,1.49,5.826,4.47,5.826c1.936,0,3.592-0.77,4.968-2.31
		c1.377-1.54,2.065-3.385,2.065-5.534c0-1.91-0.497-3.485-1.49-4.724C693.025,161.172,691.756,160.552,690.21,160.552z"/>
	<path fill="#7F1418" d="M703.598,181.266h1.169l-0.019,0.775c0,1.966,1.345,2.948,4.035,2.948c2.376,0,4.585-1.284,6.628-3.852
		c2.042-2.568,3.252-5.597,3.63-9.083c-2.515,3.344-5.299,5.016-8.354,5.016c-1.785,0-3.269-0.601-4.45-1.801
		s-1.772-2.706-1.772-4.517c0-3.042,1.087-5.734,3.262-8.079s4.67-3.517,7.486-3.517c2.438,0,4.377,0.842,5.817,2.526
		c1.438,1.685,2.158,3.966,2.158,6.845c0,4.639-1.581,8.733-4.742,12.284c-3.161,3.552-6.81,5.327-10.945,5.327
		c-1.271,0-2.93-0.297-4.979-0.891L703.598,181.266z M714.176,160.552c-1.71,0-3.171,0.843-4.384,2.527
		c-1.214,1.685-1.82,3.708-1.82,6.071c0,3.885,1.49,5.826,4.47,5.826c1.936,0,3.592-0.77,4.968-2.31
		c1.377-1.54,2.065-3.385,2.065-5.534c0-1.91-0.497-3.485-1.49-4.724C716.991,161.172,715.722,160.552,714.176,160.552z"/>
	<path fill="#7F1418" d="M726.281,180.087l1.019-3.017c9.452-5.054,14.18-9.315,14.18-12.784c0-1.119-0.399-2.062-1.198-2.829
		c-0.798-0.767-1.781-1.15-2.95-1.15c-3.03,0-4.94,1.396-5.732,4.187h-1.15l0.585-4.318c2.652-0.679,4.921-1.018,6.807-1.018
		c2.338,0,4.195,0.442,5.572,1.329c1.376,0.886,2.064,2.077,2.064,3.573c0,1.609-0.647,3.011-1.942,4.205s-4.387,3.236-9.277,6.128
		l-4.563,2.678h14.236l-1.188,3.017H726.281z"/>
</g>
</svg>
